<svg width="43" height="43" viewBox="0 0 43 43" fill="none" xmlns="http://www.w3.org/2000/svg">
<circle cx="21.1344" cy="21.1344" r="21.1344" fill="#F3BA2F"/>
<path d="M37.1253 21.8698C37.0971 21.8478 37.0666 21.8282 37.0421 21.8037C35.9616 20.7233 34.8823 19.6417 33.803 18.5601C33.7687 18.5258 33.7443 18.4818 33.7223 18.45C32.5623 19.6111 31.4231 20.7515 30.2937 21.882C31.4219 23.0114 32.5611 24.1517 33.7089 25.3007C33.7186 25.2921 33.7467 25.2701 33.7724 25.2456C34.8811 24.1358 35.9885 23.0248 37.0971 21.9151C37.1057 21.9065 37.1167 21.9016 37.1265 21.8943C37.1253 21.8857 37.1253 21.8772 37.1253 21.8698Z" fill="white"/>
<path d="M12.5322 15.99C13.6592 17.1279 14.7911 18.2707 15.9352 19.4269C16.9265 18.4346 17.9141 17.446 18.9005 16.4586C19.8857 15.4724 20.8697 14.4875 21.8647 13.4915C22.0578 13.6677 22.2301 13.8512 22.4074 14.0274C22.5895 14.2085 22.7704 14.3908 22.9525 14.5719C23.131 14.7505 23.3095 14.9292 23.4879 15.1078C23.6664 15.2864 23.8448 15.4651 24.0233 15.6437C24.2042 15.8248 24.3863 16.0071 24.5672 16.1882C24.7457 16.3668 24.9242 16.5455 25.1026 16.7241C25.2835 16.9052 25.4657 17.0875 25.6466 17.2686C25.825 17.4472 26.0035 17.6259 26.1819 17.8045C26.3604 17.9831 26.5389 18.1618 26.7173 18.3404C26.8982 18.5215 27.0803 18.7038 27.2613 18.8849C27.4385 19.0623 27.6169 19.241 27.7905 19.4147C28.9358 18.2633 30.0714 17.123 31.2106 15.979C31.1727 15.9153 21.9625 6.69097 21.8732 6.63223C18.7587 9.75597 15.643 12.876 12.5322 15.99Z" fill="white"/>
<path d="M31.215 27.7902C30.0734 26.6475 28.9329 25.5059 27.7864 24.3582C25.8221 26.3244 23.8493 28.2992 21.8654 30.2851C19.8865 28.3041 17.9173 26.333 15.9543 24.368C15.9372 24.3667 15.9335 24.3667 15.9286 24.3667C15.9249 24.3667 15.92 24.3667 15.9164 24.3692C15.9066 24.3753 15.8944 24.3814 15.8858 24.39C14.7735 25.5059 13.6587 26.6218 12.544 27.7389C12.533 27.7499 12.5244 27.7646 12.5232 27.7658C15.6438 30.8871 18.7607 34.0059 21.8838 37.1296C21.9339 37.1015 31.1405 27.8955 31.215 27.7902Z" fill="white"/>
<path d="M21.8759 25.3443C23.0212 24.1966 24.1738 23.0403 25.3143 21.8963C24.1677 20.7462 23.0114 19.5887 21.8649 18.4385C20.7244 19.5813 19.5693 20.7388 18.4216 21.889C19.5608 23.0293 20.7183 24.1868 21.8759 25.3443Z" fill="white"/>
<path d="M6.63477 21.8761C7.77398 23.0164 8.91074 24.1543 10.0512 25.2959C10.1111 25.2629 13.3233 22.0621 13.4554 21.8944C13.4138 21.8174 10.1636 18.5541 10.0451 18.4709C9.96316 18.5187 6.69833 21.7819 6.63477 21.8761Z" fill="white"/>
</svg>
