<svg width="17" height="24" viewBox="0 0 17 24" fill="none" xmlns="http://www.w3.org/2000/svg">
<path d="M0.336813 12.4263C0.565571 11.6913 2.41122 8.67408 4.53892 5.55765C6.62581 2.50103 8.39719 0 8.47514 0C8.87001 0 16.2566 11.2842 16.5925 12.4005C17.4795 15.3475 16.8207 18.1784 14.7108 20.487C11.3438 24.1712 5.90523 24.3189 2.45629 20.8201C0.329159 18.6623 -0.536264 15.2341 0.336813 12.4263Z" fill="#DE9C2D"/>
<path d="M3.93805 12.9896C3.74756 12.4125 3.65147 11.3171 3.7246 10.5558C3.79774 9.79465 3.80539 9.17159 3.74161 9.17159C3.67783 9.17159 3.35751 9.77736 3.02983 10.5181C2.27099 12.2325 2.26475 14.5994 3.01452 16.2943C4.03415 18.5991 6.58252 20.4898 8.68896 20.504L9.61022 20.5103V18.8095C9.61022 17.1773 9.58131 17.1087 8.89022 17.1087C7.12365 17.1087 4.60647 15.015 3.93805 12.9896Z" fill="#E5E5E5"/>
</svg>
