<svg width="119" height="88" viewBox="0 0 119 88" fill="none" xmlns="http://www.w3.org/2000/svg">
<g clip-path="url(#clip0_2328_8334)">
<path d="M55.6595 8.37898L6.00879 37.2386C6.89824 36.7304 8.02595 36.778 9.23306 37.4769L58.8837 8.61722C57.6766 7.91837 56.5489 7.87072 55.6595 8.37898Z" fill="#FFDA1C"/>
<path d="M9.23318 37.4617L58.8839 8.61793C58.6774 8.50675 58.4868 8.41145 58.2962 8.33203L8.64551 37.1758C8.83611 37.2552 9.04259 37.3505 9.23318 37.4617Z" fill="#FFDA1C"/>
<path d="M8.6457 37.175L58.2964 8.31534C58.1375 8.25181 57.9628 8.18827 57.804 8.14062L8.15332 37.0003C8.31215 37.0479 8.48687 37.0956 8.6457 37.175Z" fill="#FFDA1C"/>
<path d="M8.15268 36.9994L57.8034 8.15559C57.6763 8.12382 57.5492 8.09206 57.4222 8.07617L7.77148 36.9199C7.89855 36.9358 8.02561 36.9676 8.15268 36.9994Z" fill="#FFDA1C"/>
<path d="M7.77153 36.9205L57.4222 8.07669C57.311 8.0608 57.1998 8.04492 57.0887 8.04492L7.43799 36.8887C7.54917 36.8887 7.66035 36.9046 7.77153 36.9205Z" fill="#FFDA1C"/>
<path d="M7.4385 36.8887L57.0892 8.04492C56.978 8.04492 56.8827 8.04492 56.7874 8.04492L7.13672 36.8887C7.23202 36.8887 7.32732 36.8887 7.4385 36.8887Z" fill="#FFDA1C"/>
<path d="M7.13599 36.8887L56.7867 8.04492C56.6914 8.04492 56.5961 8.0608 56.5008 8.07669L6.8501 36.9205C6.9454 36.9046 7.04069 36.9046 7.13599 36.8887Z" fill="#FFDA1C"/>
<path d="M6.85084 36.9199L56.5015 8.07617C56.4062 8.09206 56.3109 8.10794 56.2315 8.1397L6.56494 36.9835C6.66024 36.9676 6.75554 36.9358 6.85084 36.9199Z" fill="#FFDA1C"/>
<path d="M6.56468 36.9844L56.2153 8.14062C56.12 8.17239 56.0406 8.20416 55.9453 8.23592L6.31055 37.0797C6.38996 37.0479 6.48526 37.0162 6.56468 36.9844Z" fill="#FFDA1C"/>
<path d="M6.31054 37.0781L55.9612 8.23438C55.8659 8.26614 55.7865 8.31379 55.6912 8.36144L6.04053 37.2052C6.11994 37.1734 6.21524 37.1258 6.31054 37.0781Z" fill="#FFDA1C"/>
<path d="M6.04056 37.2051L55.6912 8.36133C55.6753 8.36133 55.6753 8.37721 55.6595 8.37721L6.00879 37.2369C6.02467 37.221 6.04056 37.221 6.04056 37.2051Z" fill="#FFDA1C"/>
<path d="M20.8117 44.1458L70.4624 15.302L58.8836 8.61523L9.23291 37.459L20.8117 44.1458Z" fill="#F7B10C"/>
<path d="M29.2296 66.6669L78.8803 37.8232L75.116 22.3848L25.4653 51.2444L29.2296 66.6669Z" fill="#E29805"/>
<path d="M25.4658 51.2482L75.1164 22.3886C74.3541 19.2914 72.5116 16.4959 70.4627 15.3047L20.812 44.1485C22.8768 45.3397 24.7193 48.151 25.4658 51.2482Z" fill="#E29805"/>
<path d="M25.4657 51.2472L75.1164 22.3876C75.0846 22.2446 75.0369 22.1017 75.0052 21.9746L25.3545 50.8184C25.4021 50.9613 25.4339 51.1043 25.4657 51.2472Z" fill="#E29805"/>
<path d="M25.3544 50.8195L75.0051 21.9757C74.9416 21.7533 74.878 21.531 74.7986 21.3086L25.1479 50.1365C25.2274 50.3588 25.2909 50.5971 25.3544 50.8195Z" fill="#E29805"/>
<path d="M25.1484 50.1368L74.799 21.293C74.7355 21.0865 74.6561 20.8959 74.5926 20.6895L24.9419 49.5491C25.0054 49.7397 25.0848 49.9462 25.1484 50.1368Z" fill="#E29805"/>
<path d="M24.9416 49.5464L74.5923 20.6868C74.5287 20.4962 74.4493 20.3215 74.3699 20.1309L24.7192 48.9905C24.7828 49.1811 24.8622 49.3558 24.9416 49.5464Z" fill="#E29805"/>
<path d="M24.7192 48.9949L74.3699 20.1352C74.2905 19.9605 74.211 19.8017 74.1316 19.627L24.481 48.4866C24.5604 48.6613 24.6398 48.8201 24.7192 48.9949Z" fill="#E29805"/>
<path d="M24.4807 48.4843L74.1314 19.6406C74.052 19.4817 73.9725 19.3229 73.8931 19.1641L24.2266 48.0078C24.3219 48.1667 24.4013 48.3255 24.4807 48.4843Z" fill="#E29805"/>
<path d="M24.227 48.0058L73.8936 19.1462C73.8142 18.9873 73.7189 18.8285 73.6394 18.6855L23.9888 47.5452C24.0682 47.6881 24.1476 47.847 24.227 48.0058Z" fill="#E29805"/>
<path d="M23.9885 47.5466L73.6392 18.6869C73.5439 18.5281 73.4645 18.3851 73.3692 18.2422L23.7026 47.1018C23.7979 47.2448 23.8932 47.3877 23.9885 47.5466Z" fill="#E29805"/>
<path d="M23.7029 47.1027L73.3536 18.2589C73.2583 18.116 73.163 17.973 73.0677 17.8301L23.417 46.6738C23.5123 46.8009 23.6076 46.9597 23.7029 47.1027Z" fill="#E29805"/>
<path d="M23.417 46.6716L73.0677 17.8119C72.9565 17.6531 72.8612 17.5101 72.75 17.3672L23.0835 46.2268C23.2106 46.3698 23.3217 46.5127 23.417 46.6716Z" fill="#E29805"/>
<path d="M23.0836 46.2285L72.7342 17.3688C72.6072 17.21 72.4801 17.0512 72.353 16.9082L22.7183 45.7679C22.8453 45.9267 22.9724 46.0696 23.0836 46.2285Z" fill="#E29805"/>
<path d="M22.7185 45.7683L72.3691 16.9087C72.2103 16.7339 72.0356 16.5592 71.8767 16.4004L22.2261 45.26C22.4008 45.4189 22.5596 45.5936 22.7185 45.7683Z" fill="#E29805"/>
<path d="M22.2256 45.26L71.8763 16.4162C71.4316 15.9715 70.9551 15.5903 70.4627 15.3203L20.812 44.1482C21.3044 44.4341 21.7809 44.8153 22.2256 45.26Z" fill="#E29805"/>
<path d="M9.23344 37.4579C7.27982 36.3302 5.51679 36.8862 4.67498 38.8557L0.0371094 49.815L29.2303 66.667L25.466 51.2286C24.7036 48.1314 22.8612 45.336 20.8122 44.1447L9.23344 37.4579Z" fill="#FFFC5E"/>
<path d="M95.0804 29.4832L45.4297 58.327C46.3191 57.8187 47.4468 57.8822 48.654 58.5652L98.3046 29.7215C97.0975 29.0385 95.9698 28.9749 95.0804 29.4832Z" fill="#FFDA1C"/>
<path d="M48.6541 58.5652L98.3048 29.7214C98.0983 29.6103 97.9077 29.515 97.7171 29.4355L48.0664 58.2793C48.257 58.3587 48.4476 58.454 48.6541 58.5652Z" fill="#FFDA1C"/>
<path d="M48.0666 58.2802L97.7173 29.4364C97.5426 29.3729 97.3837 29.3094 97.2249 29.2617L47.5742 58.1214C47.7331 58.1531 47.9078 58.2167 48.0666 58.2802Z" fill="#FFDA1C"/>
<path d="M47.5736 58.1188L97.2242 29.2591C97.0972 29.2273 96.9701 29.1956 96.8431 29.1797L47.1924 58.0235C47.3194 58.0552 47.4465 58.087 47.5736 58.1188Z" fill="#FFDA1C"/>
<path d="M47.1924 58.024L96.8431 29.1802C96.7319 29.1643 96.6207 29.1484 96.5096 29.1484L46.8589 57.9922C46.9701 58.0081 47.0813 58.024 47.1924 58.024Z" fill="#FFDA1C"/>
<path d="M46.8594 57.9922L96.5101 29.1484C96.3989 29.1484 96.3036 29.1484 96.2083 29.1484L46.5576 57.9922C46.6529 57.9922 46.7482 57.9922 46.8594 57.9922Z" fill="#FFDA1C"/>
<path d="M46.5569 57.9922L96.1917 29.1484C96.0964 29.1643 96.0011 29.1643 95.9058 29.1961L46.271 58.0399C46.3504 58.024 46.4616 58.0081 46.5569 57.9922Z" fill="#FFDA1C"/>
<path d="M46.2717 58.0391L95.9224 29.1953C95.8271 29.2112 95.7318 29.2271 95.6524 29.2588L45.9858 58.1026C46.0811 58.0709 46.1764 58.055 46.2717 58.0391Z" fill="#FFDA1C"/>
<path d="M45.9856 58.1055L95.6362 29.2617C95.5409 29.2935 95.4615 29.3253 95.3662 29.357L45.7314 58.1849C45.8109 58.1531 45.9062 58.1214 45.9856 58.1055Z" fill="#FFDA1C"/>
<path d="M45.7314 58.1817L95.3821 29.3379C95.2868 29.3697 95.2074 29.4173 95.1121 29.465L45.4614 58.3246C45.5408 58.277 45.6361 58.2293 45.7314 58.1817Z" fill="#FFDA1C"/>
<path d="M45.4615 58.3245L95.1121 29.4648C95.0962 29.4648 95.0962 29.4648 95.0804 29.4807L45.4297 58.3245C45.4456 58.3245 45.4456 58.3245 45.4615 58.3245Z" fill="#FFDA1C"/>
<path d="M60.2341 65.2691L109.885 36.4095L98.3059 29.7227L48.6553 58.5664L60.2341 65.2691Z" fill="#F7B10C"/>
<path d="M68.651 87.7744L118.302 58.9306L114.537 43.4922L64.8867 72.3518L68.651 87.7744Z" fill="#E29805"/>
<path d="M64.8876 72.3534L114.538 43.5097C113.776 40.4124 111.933 37.6011 109.885 36.4258L60.2339 65.2695C62.2987 66.4449 64.1253 69.2562 64.8876 72.3534Z" fill="#E29805"/>
<path d="M64.8876 72.3544L114.538 43.5106C114.506 43.3677 114.459 43.2247 114.427 43.0977L64.7764 71.9255C64.824 72.0685 64.8558 72.2114 64.8876 72.3544Z" fill="#E29805"/>
<path d="M64.7763 71.9249L114.427 43.0812C114.363 42.8588 114.3 42.6205 114.22 42.4141L64.5698 71.2578C64.6492 71.4802 64.7128 71.7026 64.7763 71.9249Z" fill="#E29805"/>
<path d="M64.5703 71.2579L114.221 42.4141C114.157 42.2076 114.078 42.017 113.999 41.8105L64.3638 70.6543C64.4273 70.8449 64.5067 71.0514 64.5703 71.2579Z" fill="#E29805"/>
<path d="M64.3637 70.6555L114.014 41.7959C113.951 41.6053 113.871 41.4306 113.792 41.2559L64.1255 70.0996C64.2049 70.2902 64.2843 70.4649 64.3637 70.6555Z" fill="#E29805"/>
<path d="M64.1252 70.1001L113.776 41.2563C113.696 41.0816 113.617 40.9069 113.538 40.748L63.9028 69.5918C63.9822 69.7665 64.0617 69.9412 64.1252 70.1001Z" fill="#E29805"/>
<path d="M63.9026 69.5898L113.553 40.746C113.474 40.5872 113.394 40.4125 113.315 40.2695L63.6484 69.1133C63.7437 69.2721 63.8232 69.431 63.9026 69.5898Z" fill="#E29805"/>
<path d="M63.6489 69.1149L113.3 40.2712C113.22 40.1123 113.125 39.9535 113.045 39.8105L63.4106 68.6543C63.4901 68.8132 63.5695 68.9561 63.6489 69.1149Z" fill="#E29805"/>
<path d="M63.4104 68.6518L113.061 39.808C112.966 39.6492 112.886 39.5062 112.791 39.3633L63.1245 68.2229C63.2198 68.3659 63.3151 68.5088 63.4104 68.6518Z" fill="#E29805"/>
<path d="M63.1248 68.2243L112.775 39.3647C112.68 39.2058 112.585 39.0788 112.474 38.9199L62.8389 67.7796C62.9342 67.9225 63.0295 68.0655 63.1248 68.2243Z" fill="#E29805"/>
<path d="M62.8389 67.7809L112.49 38.9213C112.394 38.7783 112.283 38.6354 112.172 38.4766L62.5054 67.3362C62.6324 67.4792 62.7436 67.638 62.8389 67.7809Z" fill="#E29805"/>
<path d="M62.5055 67.3337L112.172 38.4899C112.045 38.3311 111.918 38.1722 111.791 38.0293L62.1401 66.8731C62.2672 67.0319 62.3943 67.1907 62.5055 67.3337Z" fill="#E29805"/>
<path d="M62.1403 66.8738L111.791 38.03C111.632 37.8394 111.473 37.6806 111.299 37.5059L61.6479 66.3655C61.8227 66.5243 61.9815 66.6991 62.1403 66.8738Z" fill="#E29805"/>
<path d="M61.6475 66.3657L111.298 37.5061C110.838 37.0614 110.377 36.6961 109.885 36.4102L60.2339 65.2698C60.7263 65.5398 61.2028 65.921 61.6475 66.3657Z" fill="#E29805"/>
<path d="M48.6548 58.5661C46.7171 57.4543 44.9382 57.9943 44.0964 59.9638L39.4585 70.9232L68.6517 87.7752L64.8874 72.3527C64.125 69.2555 62.2826 66.4442 60.2336 65.2688L48.6548 58.5661Z" fill="#FFFC5E"/>
<path d="M78.531 0.750791L28.8804 29.5946C29.7698 29.0704 30.8975 29.1339 32.1046 29.8328L81.7553 0.989038C80.5482 0.29018 79.4205 0.226648 78.531 0.750791Z" fill="#FFDA1C"/>
<path d="M32.1048 29.8328L81.7554 0.989021C81.549 0.877839 81.3584 0.766658 81.1678 0.703125L31.5171 29.5469C31.7077 29.6104 31.8983 29.7216 32.1048 29.8328Z" fill="#FFDA1C"/>
<path d="M31.5173 29.55L81.168 0.690339C81.0091 0.626807 80.8344 0.563274 80.6756 0.515625L31.0249 29.3753C31.1837 29.4229 31.3426 29.4706 31.5173 29.55Z" fill="#FFDA1C"/>
<path d="M31.0243 29.3727L80.659 0.513009C80.532 0.481243 80.4049 0.449477 80.2779 0.433594L30.6431 29.2932C30.7701 29.3091 30.8813 29.3409 31.0243 29.3727Z" fill="#FFDA1C"/>
<path d="M30.6431 29.2938L80.2779 0.43411C80.1667 0.418227 80.0555 0.418227 79.9602 0.402344L30.3096 29.262C30.4208 29.262 30.5319 29.2779 30.6431 29.2938Z" fill="#FFDA1C"/>
<path d="M30.3101 29.262L79.9607 0.402344C79.8496 0.402344 79.7543 0.402344 79.659 0.402344L30.0083 29.262C30.1036 29.262 30.1989 29.262 30.3101 29.262Z" fill="#FFDA1C"/>
<path d="M30.0076 29.2617L79.6424 0.417969C79.5471 0.417969 79.4518 0.433852 79.3565 0.449735L29.7217 29.2935C29.8011 29.2776 29.8964 29.2617 30.0076 29.2617Z" fill="#FFDA1C"/>
<path d="M29.7224 29.293L79.3572 0.449219C79.2619 0.465102 79.1666 0.480985 79.0872 0.512751L29.4365 29.3565C29.5318 29.3248 29.6271 29.3089 29.7224 29.293Z" fill="#FFDA1C"/>
<path d="M29.4365 29.3594L79.0872 0.515625C78.9919 0.547391 78.9125 0.579158 78.8172 0.610924L29.1665 29.4547C29.2618 29.4229 29.3412 29.3912 29.4365 29.3594Z" fill="#FFDA1C"/>
<path d="M29.1662 29.4531L78.8169 0.609375C78.7216 0.657024 78.6422 0.688791 78.5469 0.73644L28.9121 29.5802C28.9915 29.5326 29.0868 29.5008 29.1662 29.4531Z" fill="#FFDA1C"/>
<path d="M28.9121 29.582L78.5469 0.738281C78.5469 0.738281 78.531 0.754164 78.5152 0.754164L28.8804 29.5979C28.8804 29.5979 28.8963 29.5979 28.9121 29.582Z" fill="#FFDA1C"/>
<path d="M43.6833 36.5188L93.334 7.67508L81.7552 0.988281L32.1045 29.8321L43.6833 36.5188Z" fill="#F7B10C"/>
<path d="M52.1012 59.0419L101.752 30.1982L97.9876 14.7598L48.3369 43.6035L52.1012 59.0419Z" fill="#E29805"/>
<path d="M48.3374 43.6015L97.988 14.7577C97.2256 11.6605 95.3991 8.84918 93.3343 7.67383L43.6836 36.5176C45.7325 37.7088 47.575 40.5201 48.3374 43.6015Z" fill="#E29805"/>
<path d="M48.3373 43.6005L97.9879 14.7567C97.9562 14.6138 97.9085 14.4708 97.8767 14.3438L48.2261 43.1875C48.2737 43.3146 48.3055 43.4575 48.3373 43.6005Z" fill="#E29805"/>
<path d="M48.226 43.1889L97.8767 14.3292C97.8131 14.1068 97.7496 13.8686 97.6702 13.6621L48.0195 42.5059C48.0989 42.7282 48.1625 42.9665 48.226 43.1889Z" fill="#E29805"/>
<path d="M48.0197 42.5059L97.6704 13.6622C97.6069 13.4557 97.5274 13.2651 97.448 13.0586L47.7974 41.9024C47.8768 42.1088 47.9562 42.2994 48.0197 42.5059Z" fill="#E29805"/>
<path d="M47.7976 41.9033L97.4482 13.0596C97.3688 12.869 97.3053 12.6942 97.2259 12.5195L47.5752 41.3633C47.6546 41.538 47.734 41.7286 47.7976 41.9033Z" fill="#E29805"/>
<path d="M47.5749 41.364L97.2256 12.5044C97.1462 12.3296 97.0667 12.1708 96.9873 11.9961L47.3525 40.8557C47.432 41.0146 47.4955 41.1893 47.5749 41.364Z" fill="#E29805"/>
<path d="M47.3523 40.8537L96.9871 11.9941C96.9235 11.8352 96.8282 11.6764 96.7488 11.5176L47.0981 40.3772C47.1934 40.5361 47.2729 40.6949 47.3523 40.8537Z" fill="#E29805"/>
<path d="M47.0989 40.3789L96.7495 11.5192C96.6701 11.3604 96.5748 11.2015 96.4954 11.0586L46.8447 39.9182C46.94 40.0612 47.0194 40.22 47.0989 40.3789Z" fill="#E29805"/>
<path d="M46.8442 39.9177L96.4949 11.058C96.3996 10.8992 96.3202 10.7562 96.2249 10.6133L46.5742 39.4729C46.6695 39.6159 46.7648 39.7588 46.8442 39.9177Z" fill="#E29805"/>
<path d="M46.5745 39.4721L96.2251 10.6124C96.1298 10.4695 96.0345 10.3265 95.9392 10.1836L46.2886 39.0432C46.3839 39.1862 46.4792 39.3291 46.5745 39.4721Z" fill="#E29805"/>
<path d="M46.2886 39.0446L95.9393 10.185C95.8281 10.0261 95.7328 9.88318 95.6216 9.74023L45.9551 38.5999C46.0663 38.7428 46.1774 38.8858 46.2886 39.0446Z" fill="#E29805"/>
<path d="M45.9549 38.5976L95.6056 9.73795C95.4785 9.57912 95.3515 9.42029 95.2244 9.27734L45.5737 38.137C45.7167 38.2799 45.8437 38.4388 45.9549 38.5976Z" fill="#E29805"/>
<path d="M45.5741 38.1377L95.2407 9.27805C95.0819 9.08745 94.9072 8.91274 94.7483 8.75391L45.0977 37.6136C45.2565 37.7724 45.4312 37.9471 45.5741 38.1377Z" fill="#E29805"/>
<path d="M45.0972 37.6135L94.7479 8.76976C94.2873 8.32504 93.8266 7.95972 93.3343 7.67383L43.6836 36.5176C44.176 36.8035 44.6366 37.1688 45.0972 37.6135Z" fill="#E29805"/>
<path d="M32.105 29.8329C30.1673 28.7052 28.3884 29.2612 27.5466 31.2307L22.9087 42.19L52.1019 59.042L48.3376 43.6036C47.5911 40.5064 45.7486 37.711 43.6838 36.5197L32.105 29.8329Z" fill="#FFFC5E"/>
<path d="M46.0978 33.5156C46.0978 33.5156 45.939 38.2647 42.6035 38.8524C42.6035 38.8524 46.3361 40.1389 46.3043 43.0455C46.3519 43.0137 46.5108 38.8047 50.418 38.8524C50.418 38.8524 46.892 38.7253 46.0978 33.5156Z" fill="white"/>
<path d="M63.1879 59.9473C63.1879 59.9473 62.9338 67.317 57.7559 68.2224C57.7559 68.2224 63.5691 70.2237 63.5056 74.7503C63.5691 74.7027 63.8232 68.1588 69.9065 68.2224C69.9065 68.2224 64.4109 68.0159 63.1879 59.9473Z" fill="white"/>
<path d="M7.51805 40.3477C7.51805 40.3477 7.35922 44.8426 4.21436 45.3985C4.21436 45.3985 7.75629 46.6215 7.72453 49.3693C7.77218 49.3375 7.91513 45.3508 11.6318 45.3985C11.6159 45.3985 8.26455 45.2714 7.51805 40.3477Z" fill="white"/>
</g>
<defs>
<clipPath id="clip0_2328_8334">
<rect width="118.266" height="87.3731" fill="white" transform="translate(0.0371094 0.400391)"/>
</clipPath>
</defs>
</svg>
