<svg width="26" height="26" viewBox="0 0 26 26" fill="none" xmlns="http://www.w3.org/2000/svg">
<path fill-rule="evenodd" clip-rule="evenodd" d="M8.36333 1.39488C4.58725 3.00281 1.65285 6.8069 1.01117 10.9262C0.456758 14.4851 1.54849 18.3064 3.89929 21.0353C5.69496 23.1198 8.51199 24.7137 11.2176 25.1759C15.7911 25.9572 20.4772 24.1531 23.227 20.5524C28.033 14.2591 26.0996 5.42715 19.1176 1.78049C15.7367 0.0146799 11.9258 -0.121933 8.36333 1.39488ZM11.7276 4.65829C12.1683 4.6402 12.5466 4.63255 12.5683 4.64128C12.5899 4.65015 12.6195 5.07253 12.6338 5.58006C12.6666 6.73887 12.6578 6.71427 13.0341 6.69769C13.2071 6.69006 13.4313 6.68451 13.5324 6.68538C13.6782 6.68658 13.706 6.49957 13.6675 5.78088C13.6407 5.28257 13.6366 4.81136 13.6585 4.73375C13.7053 4.56833 15.6677 4.46466 15.7136 4.62516C15.7288 4.67858 15.7591 5.26312 15.7807 5.92422L15.8202 7.12594L16.5864 7.55568C17.4855 8.0599 18.3822 8.95715 18.8777 9.84826C19.0719 10.1975 19.217 10.508 19.2002 10.5384C19.1833 10.5687 18.6796 10.614 18.0808 10.639L16.9921 10.6844L16.4767 10.1152C15.8608 9.43489 14.9786 8.96394 14.0346 8.8115C13.4326 8.71436 13.2106 8.73886 12.275 9.00618C11.3393 9.2735 11.1379 9.36995 10.678 9.77047C9.64354 10.6717 9.14501 11.8858 9.24871 13.2512C9.38322 15.024 10.8271 16.5575 12.6742 16.8894C13.3437 17.0098 13.5035 16.9934 14.5309 16.6999C15.5538 16.4077 15.7005 16.3363 16.1577 15.9083C16.4341 15.6496 16.7481 15.2892 16.8553 15.1073L17.0503 14.7765L18.2245 14.7382L19.3986 14.6999L19.2695 15.0643C18.8942 16.1237 17.7017 17.519 16.656 18.1224L16.1928 18.3898L16.2411 19.6677C16.2678 20.3706 16.2855 20.9573 16.2806 20.9717C16.2719 20.9969 14.5844 21.0651 14.3078 21.0515C14.2102 21.0467 14.1629 20.7535 14.1416 20.0193L14.1117 18.9937L13.6116 19.0205C13.3366 19.0351 13.1036 19.0815 13.0941 19.1235C13.0845 19.1656 13.0948 19.5856 13.117 20.057C13.1393 20.5283 13.1371 20.9562 13.1122 21.0078C13.0769 21.0812 11.2359 21.2175 11.0824 21.1582C11.0628 21.1506 11.0254 20.5742 10.9994 19.8773L10.9523 18.6102L10.0964 18.0966C8.78994 17.3127 7.71597 15.9371 7.31522 14.5344C6.59479 12.0127 7.84445 8.90391 10.1049 7.59488C10.6234 7.29469 10.5912 7.43487 10.5294 5.7411C10.4914 4.70123 10.4942 4.68571 10.7224 4.68862C10.8346 4.69004 11.287 4.67638 11.7276 4.65829Z" fill="url(#paint0_linear_1728_2071)"/>
<defs>
<linearGradient id="paint0_linear_1728_2071" x1="9.94929" y1="0.832799" x2="16.8169" y2="24.871" gradientUnits="userSpaceOnUse">
<stop offset="0.269955" stop-color="#2AAFCC"/>
<stop offset="0.391175" stop-color="#2AAFCC"/>
<stop offset="0.591647" stop-color="#47C8E4"/>
</linearGradient>
</defs>
</svg>
