<svg width="37" height="35" viewBox="0 0 37 35" fill="none" xmlns="http://www.w3.org/2000/svg">
<path d="M30.2818 17.8783C30.2798 23.9356 25.07 28.8505 18.6541 28.8496C12.2441 28.8486 7.0135 23.9216 7.00855 17.8811C7.00359 11.8145 12.2431 6.87245 18.6729 6.88087C25.0779 6.88929 30.2838 11.821 30.2818 17.8783ZM18.662 8.89529C13.3987 8.8878 9.14322 12.8961 9.14223 17.8615C9.14124 22.8288 13.3898 26.8548 18.6402 26.8595C23.8808 26.8651 28.1669 22.8278 28.1739 17.8792C28.1818 12.926 23.9224 8.90277 18.662 8.89529Z" fill="url(#paint0_linear_1728_2072)"/>
<path d="M18.6621 8.89552C23.9225 8.903 28.1819 12.9262 28.175 17.8804C28.168 22.829 23.8818 26.8653 18.6413 26.8606C13.3908 26.855 9.14133 22.8299 9.14331 17.8626C9.14331 12.8963 13.3978 8.88803 18.6621 8.89552ZM20.7413 20.8716C20.5421 20.8716 20.3657 20.8716 20.1893 20.8716C18.8355 20.8716 17.4808 20.8679 16.1271 20.8735C15.4195 20.8763 14.9398 21.2871 14.9428 21.8662C14.9458 22.4472 15.4294 22.8533 16.133 22.8599C16.6067 22.8645 17.0804 22.8608 17.5928 22.8608C17.5928 23.2378 17.5779 23.5625 17.5958 23.8853C17.6265 24.4532 18.0725 24.8481 18.6542 24.8453C19.2438 24.8425 19.665 24.456 19.6918 23.8722C19.7067 23.5494 19.6948 23.2266 19.6948 22.8599C20.0664 22.8599 20.3756 22.8627 20.6858 22.8599C21.9781 22.8477 22.8512 22.0271 22.868 20.8005C22.876 20.1924 22.874 19.5851 22.869 18.977C22.8571 17.6914 21.9939 16.8765 20.6362 16.8709C19.447 16.8662 18.2588 16.8709 17.0695 16.869C16.8971 16.869 16.7237 16.855 16.5532 16.8465C16.5532 16.1719 16.5532 15.5544 16.5532 14.8817C16.7584 14.8817 16.9348 14.8817 17.1121 14.8817C18.45 14.8817 19.7869 14.8864 21.1248 14.8789C21.875 14.8752 22.3517 14.471 22.3487 13.8693C22.3458 13.2677 21.8701 12.8794 21.1139 12.8692C20.658 12.8626 20.2022 12.8682 19.6977 12.8682C19.6977 12.4799 19.7037 12.1562 19.6967 11.8315C19.6819 11.1766 19.2795 10.7696 18.6532 10.7696C18.0328 10.7687 17.6087 11.1878 17.5928 11.8259C17.5849 12.1637 17.5918 12.5015 17.5918 12.8701C17.2172 12.8701 16.905 12.8626 16.5938 12.871C15.3015 12.9066 14.4304 13.7402 14.4195 14.9528C14.4136 15.5759 14.4136 16.2 14.4195 16.8231C14.4324 18.0086 15.3134 18.8413 16.578 18.8572C17.2717 18.8656 17.9654 18.8591 18.6581 18.8591C19.3469 18.8591 20.0347 18.8591 20.7403 18.8591C20.7413 19.5515 20.7413 20.1839 20.7413 20.8716Z" fill="url(#paint1_linear_1728_2072)"/>
<path d="M20.7411 20.8716C20.7411 20.1839 20.7411 19.5514 20.7411 18.859C20.0355 18.859 19.3468 18.859 18.659 18.859C17.9653 18.859 17.2715 18.8656 16.5788 18.8571C15.3143 18.8412 14.4323 18.0085 14.4204 16.8231C14.4134 16.1999 14.4144 15.5759 14.4204 14.9528C14.4313 13.7402 15.3024 12.9065 16.5947 12.871C16.9059 12.8625 17.218 12.87 17.5926 12.87C17.5926 12.5005 17.5857 12.1627 17.5936 11.8259C17.6085 11.1878 18.0327 10.7695 18.654 10.7695C19.2804 10.7705 19.6827 11.1765 19.6976 11.8333C19.7055 12.1571 19.6986 12.4817 19.6986 12.87C20.203 12.87 20.6589 12.8654 21.1148 12.871C21.8709 12.8813 22.3466 13.2695 22.3496 13.8712C22.3525 14.4728 21.8759 14.877 21.1257 14.8807C19.7878 14.8882 18.4509 14.8826 17.113 14.8835C16.9366 14.8835 16.7592 14.8835 16.554 14.8835C16.554 15.5562 16.554 16.1738 16.554 16.8483C16.7245 16.8558 16.8969 16.8699 17.0704 16.8708C18.2596 16.8727 19.4478 16.868 20.6371 16.8727C21.9948 16.8773 22.858 17.6932 22.8699 18.9788C22.8758 19.5869 22.8778 20.1942 22.8689 20.8023C22.852 22.028 21.9789 22.8495 20.6866 22.8617C20.3764 22.8645 20.0672 22.8617 19.6956 22.8617C19.6956 23.2284 19.7075 23.5512 19.6926 23.874C19.6659 24.4579 19.2447 24.8443 18.655 24.8471C18.0723 24.8499 17.6273 24.455 17.5966 23.8871C17.5788 23.5643 17.5936 23.2387 17.5936 22.8626C17.0813 22.8626 16.6076 22.8663 16.1339 22.8617C15.4292 22.8551 14.9456 22.449 14.9436 21.868C14.9407 21.2889 15.4203 20.8781 16.1279 20.8753C17.4816 20.8688 18.8354 20.8734 20.1901 20.8734C20.3655 20.8716 20.5419 20.8716 20.7411 20.8716Z" fill="#27293D"/>
<defs>
<linearGradient id="paint0_linear_1728_2072" x1="18.6452" y1="6.88086" x2="18.6452" y2="28.8496" gradientUnits="userSpaceOnUse">
<stop offset="0.269955" stop-color="#2AAFCC"/>
<stop offset="0.391175" stop-color="#2AAFCC"/>
<stop offset="0.591647" stop-color="#47C8E4"/>
</linearGradient>
<linearGradient id="paint1_linear_1728_2072" x1="18.6591" y1="8.89551" x2="18.6591" y2="26.8606" gradientUnits="userSpaceOnUse">
<stop offset="0.269955" stop-color="#2AAFCC"/>
<stop offset="0.391175" stop-color="#2AAFCC"/>
<stop offset="0.591647" stop-color="#47C8E4"/>
</linearGradient>
</defs>
</svg>
