<svg width="26" height="26" viewBox="0 0 26 26" fill="none" xmlns="http://www.w3.org/2000/svg">
<circle cx="12.7686" cy="13.3516" r="12.5" fill="url(#paint0_linear_1728_2073)"/>
<path d="M18.7434 6.8811C18.9124 6.97147 18.9411 7.1047 18.9041 7.28298C18.7452 8.04976 18.5978 8.81898 18.4442 9.58698C18.3954 9.83041 18.1824 9.90437 17.9873 9.74788C17.8646 9.64943 17.7449 9.54731 17.6234 9.44714C17.6207 9.4447 17.6156 9.4447 17.5978 9.4398C17.3805 9.68323 17.1587 9.93131 16.9377 10.1796C16.2135 10.9937 15.4898 11.808 14.7656 12.622C14.6105 12.7964 14.4943 12.8067 14.3027 12.6639C13.3145 11.9282 12.3263 11.1923 11.338 10.4566C11.3051 10.4321 11.2711 10.4086 11.2317 10.3802C10.9327 10.6261 10.6352 10.8702 10.338 11.1149C9.46469 11.8339 8.59163 12.5532 7.71808 13.272C7.53753 13.4206 7.41055 13.4111 7.25741 13.2365C7.07812 13.0317 6.89984 12.8258 6.72181 12.6196C6.57244 12.4467 6.58401 12.3191 6.76481 12.1702C8.13424 11.0431 9.50341 9.91588 10.8736 8.78984C11.1829 8.53563 11.2002 8.53735 11.5226 8.77833C12.4296 9.45645 13.3366 10.1343 14.2439 10.812C14.2763 10.8362 14.311 10.8578 14.3515 10.8852C15.0636 10.0849 15.7709 9.29017 16.4873 8.48519C16.3611 8.37792 16.2392 8.27482 16.1175 8.17123C15.9175 8.00053 15.9628 7.77743 16.2148 7.69245C16.9694 7.43776 17.7245 7.1838 18.4791 6.9291C18.5179 6.91612 18.5546 6.89702 18.5923 6.88086C18.6428 6.8811 18.6931 6.8811 18.7434 6.8811Z" fill="#27293D"/>
<path d="M10.149 15.356C10.149 14.2987 10.149 13.2418 10.149 12.1845C10.149 11.946 10.2005 11.8948 10.4414 11.8948C10.9778 11.8946 11.5144 11.8943 12.0507 11.8948C12.2703 11.8951 12.3299 11.9516 12.3299 12.1598C12.3301 14.2904 12.3301 16.421 12.3299 18.5514C12.3299 18.7561 12.27 18.8164 12.0638 18.8166C11.5149 18.8173 10.9657 18.8173 10.4168 18.8166C10.2098 18.8164 10.1495 18.7564 10.1495 18.5516C10.1487 17.4866 10.149 16.4213 10.149 15.356Z" fill="#27293D"/>
<path d="M15.8095 16.2125C15.8095 16.9873 15.8098 17.7624 15.8095 18.5373C15.8095 18.7699 15.7587 18.8211 15.5249 18.8216C14.9888 18.8223 14.4527 18.8223 13.9166 18.8216C13.69 18.8214 13.6354 18.7672 13.6354 18.5463C13.6352 16.9841 13.6352 15.4219 13.6354 13.86C13.6354 13.6457 13.6913 13.5903 13.907 13.5901C14.4557 13.5898 15.0044 13.5896 15.5528 13.5903C15.7456 13.5906 15.8085 13.6508 15.8088 13.8389C15.81 14.6299 15.8095 15.4212 15.8095 16.2125Z" fill="#27293D"/>
<path d="M18.9184 15.0188C18.9184 16.0775 18.9187 17.1365 18.9184 18.1951C18.9184 18.513 18.8676 18.5829 18.6338 18.5836C18.0977 18.5846 17.5616 18.5846 17.0255 18.5836C16.7989 18.5833 16.7443 18.5093 16.7443 18.2075C16.7441 16.0731 16.7441 13.9387 16.7443 11.8046C16.7443 11.5118 16.8002 11.4362 17.0159 11.4359C17.5646 11.4355 18.1132 11.4352 18.6617 11.4362C18.8545 11.4366 18.9174 11.5189 18.9177 11.7758C18.9189 12.8566 18.9184 13.9377 18.9184 15.0188Z" fill="#27293D"/>
<path d="M6.67066 16.3689C6.67066 15.6426 6.67041 14.916 6.67066 14.1896C6.67066 13.9839 6.72699 13.9285 6.93771 13.9283C7.48663 13.9276 8.03556 13.9276 8.58473 13.9283C8.78514 13.9285 8.84423 13.9873 8.84423 14.1857C8.84474 15.6426 8.84474 17.0997 8.84423 18.5566C8.84423 18.7618 8.78565 18.8204 8.57644 18.8209C8.03153 18.8221 7.48688 18.8218 6.94198 18.8209C6.72623 18.8204 6.67041 18.7631 6.67041 18.5483C6.67041 17.8217 6.67066 17.0953 6.67066 16.3689Z" fill="#27293D"/>
<defs>
<linearGradient id="paint0_linear_1728_2073" x1="12.7686" y1="0.851562" x2="12.7686" y2="25.8516" gradientUnits="userSpaceOnUse">
<stop offset="0.269955" stop-color="#2AAFCC"/>
<stop offset="0.391175" stop-color="#2AAFCC"/>
<stop offset="0.591647" stop-color="#47C8E4"/>
</linearGradient>
</defs>
</svg>
